<svg 
 xmlns="http://www.w3.org/2000/svg"
 xmlns:xlink="http://www.w3.org/1999/xlink"
 width="277px" height="213px">
<path fill-rule="evenodd"  fill="rgb(0, 0, 0)"
 d="M254.699,168.617 C242.829,168.617 233.186,158.857 233.186,146.842 C233.186,134.828 242.829,125.067 254.699,125.067 C266.568,125.067 276.211,134.828 276.211,146.842 C276.211,158.857 266.568,168.617 254.699,168.617 ZM254.699,195.836 C254.699,204.852 247.472,212.168 238.564,212.168 C229.657,212.168 222.430,204.852 222.430,195.836 C222.430,186.820 229.657,179.505 238.564,179.505 C247.472,179.505 254.699,186.820 254.699,195.836 ZM127.997,182.386 C125.151,185.268 121.296,186.883 117.272,186.883 C117.272,186.883 53.779,186.883 53.779,186.883 C49.756,186.883 45.901,185.268 43.054,182.386 C43.054,182.386 4.982,143.844 4.982,143.844 C-0.943,137.847 -0.943,128.130 4.982,122.133 C4.982,122.133 120.434,5.273 120.434,5.273 C126.359,-0.724 135.959,-0.724 141.883,5.273 C141.883,5.273 211.705,75.946 211.705,75.946 C217.629,81.943 217.629,91.660 211.705,97.657 C211.705,97.657 127.997,182.386 127.997,182.386 ZM70.313,86.802 C70.313,86.802 24.677,132.988 24.677,132.988 C24.677,132.988 56.405,165.108 56.405,165.108 C56.405,165.108 114.635,165.108 114.635,165.108 C114.635,165.108 131.158,148.384 131.158,148.384 C131.158,148.384 70.313,86.802 70.313,86.802 ZM190.161,164.332 C202.041,164.332 211.673,174.083 211.673,186.107 C211.673,198.132 202.041,207.882 190.161,207.882 C178.280,207.882 168.648,198.132 168.648,186.107 C168.648,174.083 178.280,164.332 190.161,164.332 Z"/>
</svg>