<?xml version="1.0" encoding="utf-8"?>
<!-- Generator: Adobe Illustrator 18.0.0, SVG Export Plug-In . SVG Version: 6.00 Build 0)  -->
<!DOCTYPE svg PUBLIC "-//W3C//DTD SVG 1.1//EN" "http://www.w3.org/Graphics/SVG/1.1/DTD/svg11.dtd">
<svg version="1.1" xmlns="http://www.w3.org/2000/svg" xmlns:xlink="http://www.w3.org/1999/xlink" x="0px" y="0px"
	 viewBox="0 0 21 16" enable-background="new 0 0 21 16" xml:space="preserve">
<g id="_x31_">
</g>
<g id="_x31_a">
</g>
<g id="_x32_">
</g>
<g id="_x32_a">
</g>
<g id="_x33_">
</g>
<g id="_x33_a">
</g>
<g id="Bunker">
	<polygon fill="#30FF42" points="0,16 5,16 5,14 6,14 6,13 7,13 7,12 14,12 14,13 15,13 15,14 16,14 16,16 21,16 21,5 20,5 20,4 
		19,4 19,3 18,3 18,2 17,2 17,1 16,1 16,0 4,0 4,1 3,1 3,2 2,2 2,3 1,3 1,4 0,4 	"/>
</g>
<g id="Base">
</g>
<g id="Base_Destroyed">
</g>
<g id="Base_Destroyeda">
</g>
<g id="Missile">
</g>
<g id="Enemy_Fire">
</g>
<g id="Enemy_Fire_2">
</g>
</svg>
