<?xml version="1.0" encoding="utf-8"?>
<!-- Generator: Adobe Illustrator 18.0.0, SVG Export Plug-In . SVG Version: 6.00 Build 0)  -->
<!DOCTYPE svg PUBLIC "-//W3C//DTD SVG 1.1//EN" "http://www.w3.org/Graphics/SVG/1.1/DTD/svg11.dtd">
<svg version="1.1" xmlns="http://www.w3.org/2000/svg" xmlns:xlink="http://www.w3.org/1999/xlink" x="0px" y="0px"
	 viewBox="0 0 14 8" enable-background="new 0 0 14 8" xml:space="preserve">
<g id="_x31_">
</g>
<g id="_x31_a">
</g>
<g id="_x32_">
</g>
<g id="_x32_a">
</g>
<g id="_x33_">
</g>
<g id="_x33_a">
</g>
<g id="Bunker">
</g>
<g id="Base">
</g>
<g id="Base_Destroyed">
</g>
<g id="Base_Destroyeda">
	<polygon fill="#30FF42" points="5,4 4,4 4,5 3,5 3,6 2,6 2,7 0,7 0,8 12,8 12,7 10,7 10,6 9,6 9,5 8,5 8,4 7,4 6,4 6,5 5,5 	"/>
	<rect x="1" y="1" fill="#30FF42" width="1" height="1"/>
	<rect x="10" y="3" fill="#30FF42" width="1" height="1"/>
	<rect x="13" y="4" fill="#30FF42" width="1" height="1"/>
	<rect x="12" y="3" fill="#30FF42" width="1" height="1"/>
	<rect x="8" y="1" fill="#30FF42" width="1" height="1"/>
	<rect x="7" y="2" fill="#30FF42" width="1" height="1"/>
	<rect x="5" y="0" fill="#30FF42" width="1" height="1"/>
	<rect x="5" y="2" fill="#30FF42" width="1" height="1"/>
	<rect x="0" y="5" fill="#30FF42" width="1" height="1"/>
	<rect x="1" y="3" fill="#30FF42" width="1" height="1"/>
	<rect x="11" y="2" fill="#30FF42" width="1" height="1"/>
</g>
<g id="Missile">
</g>
<g id="Enemy_Fire">
</g>
<g id="Enemy_Fire_2">
</g>
</svg>
