<?xml version="1.0" encoding="utf-8"?>
<!-- Generator: Adobe Illustrator 18.0.0, SVG Export Plug-In . SVG Version: 6.00 Build 0)  -->
<!DOCTYPE svg PUBLIC "-//W3C//DTD SVG 1.1//EN" "http://www.w3.org/Graphics/SVG/1.1/DTD/svg11.dtd">
<svg version="1.1" xmlns="http://www.w3.org/2000/svg" xmlns:xlink="http://www.w3.org/1999/xlink" x="0px" y="0px"
	 viewBox="0 0 11 8" enable-background="new 0 0 11 8" xml:space="preserve">
<g id="_x31_">
</g>
<g id="_x31_a">
</g>
<g id="_x32_">
	<rect x="2" fill="#FFFFFF" width="1" height="1"/>
	<rect x="8" y="0" fill="#FFFFFF" width="1" height="1"/>
	<rect x="3" y="7" fill="#FFFFFF" width="2" height="1"/>
	<rect x="6" y="7" fill="#FFFFFF" width="2" height="1"/>
	<path fill="#FFFFFF" d="M10,4V3H9V2H8V1L7,1v1H4V1H3v1H2v1H1v1H0v3h1V6h1v1h1V6h5l0,1h1V6h1v1h1V4H10z M4,4H3V3h1V4z M8,4H7V3h1V4z
		"/>
</g>
<g id="_x32_a">
</g>
<g id="_x33_">
</g>
<g id="_x33_a">
</g>
<g id="Bunker">
</g>
<g id="Base">
</g>
<g id="Base_Destroyed">
</g>
<g id="Base_Destroyeda">
</g>
<g id="Missile">
</g>
<g id="Enemy_Fire">
</g>
<g id="Enemy_Fire_2">
</g>
</svg>
