<?xml version="1.0" encoding="utf-8"?>
<!-- Generator: Adobe Illustrator 18.0.0, SVG Export Plug-In . SVG Version: 6.00 Build 0)  -->
<!DOCTYPE svg PUBLIC "-//W3C//DTD SVG 1.1//EN" "http://www.w3.org/Graphics/SVG/1.1/DTD/svg11.dtd">
<svg version="1.1" xmlns="http://www.w3.org/2000/svg" xmlns:xlink="http://www.w3.org/1999/xlink" x="0px" y="0px"
	 viewBox="0 0 14 8" enable-background="new 0 0 14 8" xml:space="preserve">
<g id="Layer_1">
	<rect x="-107" y="-21" fill="#FFFFFF" width="1" height="1"/>
	<rect x="-108" y="-22" fill="#FFFFFF" width="1" height="1"/>
	<rect x="-101" y="-22" fill="#FFFFFF" width="1" height="1"/>
	<rect x="-102" y="-21" fill="#FFFFFF" width="1" height="1"/>
	<path fill="#FFFFFF" d="M-101-25v-1h-1v-1h-1v-1h-2v1h-1v1h-1v1h-1v2h1v1h1v-1h1v1h2v-1h1v1h1v-1h1v-2H-101z M-105-24h-1v-1h1V-24z
		 M-102-24h-1v-1h1V-24z"/>
</g>
<g id="Layer_2">
	<rect x="-80" y="-21" fill="#FFFFFF" width="1" height="1"/>
	<rect x="-79" y="-22" fill="#FFFFFF" width="1" height="1"/>
	<rect x="-74" y="-22" fill="#FFFFFF" width="1" height="1"/>
	<rect x="-73" y="-21" fill="#FFFFFF" width="1" height="1"/>
	<path fill="#FFFFFF" d="M-73-23h1v-2h-1v-1h-1v-1h-1v-1h-2v1h-1v1h-1v1h-1v2h1h1v1h1v-1h2v1h1v-1H-73z M-77-24h-1v-1h1V-24z
		 M-74-24h-1v-1h1V-24z"/>
	<rect x="-78" y="-21" fill="#FFFFFF" width="1" height="1"/>
	<rect x="-75" y="-21" fill="#FFFFFF" width="1" height="1"/>
	<rect x="-77" y="-22" fill="#FFFFFF" width="2" height="1"/>
</g>
<g id="Layer_3">
	<rect x="-50" y="-28" fill="#FFFFFF" width="1" height="1"/>
	<rect x="-44" y="-28" fill="#FFFFFF" width="1" height="1"/>
	<rect x="-49" y="-21" fill="#FFFFFF" width="2" height="1"/>
	<rect x="-46" y="-21" fill="#FFFFFF" width="2" height="1"/>
	<path fill="#FFFFFF" d="M-42-24v-1h-1v-1h-1v-1l-1,0v1h-3v-1h-1v1h-1v1h-1v1h-1v3h1v-1h1v1h1v-1h5l0,1h1v-1h1v1h1v-3H-42z M-48-24
		h-1v-1h1V-24z M-44-24h-1v-1h1V-24z"/>
</g>
<g id="Layer_4">
	<rect x="-19" y="-28" fill="#FFFFFF" width="1" height="1"/>
	<rect x="-13" y="-28" fill="#FFFFFF" width="1" height="1"/>
	<path fill="#FFFFFF" d="M-11-27v2h-1v-1h-1v-1l-1,0v1h-3v-1h-1v1h-1v1h-1v-2h-1v4h1v1h1v1h1v-1h5l0,1h1v-1h1v-1h1v-4H-11z M-17-24
		h-1v-1h1V-24z M-13-24h-1v-1h1V-24z"/>
	<rect x="-20" y="-21" fill="#FFFFFF" width="1" height="1"/>
	<rect x="-12" y="-21" fill="#FFFFFF" width="1" height="1"/>
</g>
<g id="Layer_5">
	<polygon fill="#30FF42" points="-108,16 -103,16 -103,14 -102,14 -102,13 -101,13 -101,12 -94,12 -94,13 -93,13 -93,14 -92,14 
		-92,16 -87,16 -87,5 -88,5 -88,4 -89,4 -89,3 -90,3 -90,2 -91,2 -91,1 -92,1 -92,0 -104,0 -104,1 -105,1 -105,2 -106,2 -106,3 
		-107,3 -107,4 -108,4 	"/>
</g>
<g id="Layer_6">
	<polygon fill="#30FF42" points="-67,8 -54,8 -54,4 -55,4 -55,3 -59,3 -59,1 -60,1 -60,0 -61,0 -61,1 -62,1 -62,3 -66,3 -66,4 
		-67,4 	"/>
</g>
<g id="Layer_7">
	<polygon fill="#30FF42" points="-34,8 -22,8 -22,7 -24,7 -24,6 -25,6 -25,5 -26,5 -26,4 -27,4 -27,5 -28,5 -28,3 -29,3 -29,4 
		-30,4 -30,5 -31,5 -31,6 -32,6 -32,7 -34,7 	"/>
	<rect x="-34" y="0" fill="#30FF42" width="1" height="1"/>
	<rect x="-23" y="5" fill="#30FF42" width="1" height="1"/>
	<rect x="-21" y="4" fill="#30FF42" width="1" height="1"/>
	<rect x="-23" y="2" fill="#30FF42" width="1" height="1"/>
	<rect x="-23" y="0" fill="#30FF42" width="1" height="1"/>
	<rect x="-25" y="3" fill="#30FF42" width="1" height="1"/>
	<rect x="-28" y="2" fill="#30FF42" width="1" height="1"/>
	<rect x="-28" y="0" fill="#30FF42" width="1" height="1"/>
	<rect x="-31" y="1" fill="#30FF42" width="1" height="1"/>
	<rect x="-34" y="4" fill="#30FF42" width="1" height="1"/>
	<rect x="-33" y="2" fill="#30FF42" width="1" height="1"/>
</g>
<g id="Layer_8_1_">
	<polygon fill="#30FF42" points="5,4 4,4 4,5 3,5 3,6 2,6 2,7 0,7 0,8 12,8 12,7 10,7 10,6 9,6 9,5 8,5 8,4 7,4 6,4 6,5 5,5 	"/>
	<rect x="1" y="1" fill="#30FF42" width="1" height="1"/>
	<rect x="10" y="3" fill="#30FF42" width="1" height="1"/>
	<rect x="13" y="4" fill="#30FF42" width="1" height="1"/>
	<rect x="12" y="3" fill="#30FF42" width="1" height="1"/>
	<rect x="8" y="1" fill="#30FF42" width="1" height="1"/>
	<rect x="7" y="2" fill="#30FF42" width="1" height="1"/>
	<rect x="5" y="0" fill="#30FF42" width="1" height="1"/>
	<rect x="5" y="2" fill="#30FF42" width="1" height="1"/>
	<rect x="0" y="5" fill="#30FF42" width="1" height="1"/>
	<rect x="1" y="3" fill="#30FF42" width="1" height="1"/>
	<rect x="11" y="2" fill="#30FF42" width="1" height="1"/>
</g>
<g id="Layer_9_1_">
	<rect x="-108" y="36" fill="#FFFFFF" width="1" height="4"/>
</g>
<g id="Layer_10">
	<polygon fill="#FFFFFF" points="-87,37 -86,37 -86,36 -85,36 -85,37 -84,37 -84,38 -85,38 -85,40 -86,40 -86,38 -87,38 	"/>
</g>
<g id="Layer_11" display="none">
	<rect x="-63" y="36" display="inline" fill="#FFFFFF" width="1" height="1"/>
	<rect x="-62" y="37" display="inline" fill="#FFFFFF" width="1" height="1"/>
	<rect x="-63" y="38" display="inline" fill="#FFFFFF" width="1" height="1"/>
	<rect x="-64" y="39" display="inline" fill="#FFFFFF" width="1" height="1"/>
	<rect x="-63" y="40" display="inline" fill="#FFFFFF" width="1" height="1"/>
	<polygon display="inline" fill="#30FF42" points="0,8 12,8 12,7 10,7 10,6 9,6 9,5 8,5 8,4 7,4 7,5 6,5 6,3 5,3 5,4 4,4 4,5 3,5 
		3,6 2,6 2,7 0,7 	"/>
	<rect x="0" y="0" display="inline" fill="#30FF42" width="1" height="1"/>
	<rect x="11" y="5" display="inline" fill="#30FF42" width="1" height="1"/>
	<rect x="13" y="4" display="inline" fill="#30FF42" width="1" height="1"/>
	<rect x="11" y="2" display="inline" fill="#30FF42" width="1" height="1"/>
	<rect x="11" y="0" display="inline" fill="#30FF42" width="1" height="1"/>
	<rect x="9" y="3" display="inline" fill="#30FF42" width="1" height="1"/>
	<rect x="6" y="2" display="inline" fill="#30FF42" width="1" height="1"/>
	<rect x="6" y="0" display="inline" fill="#30FF42" width="1" height="1"/>
	<rect x="3" y="1" display="inline" fill="#30FF42" width="1" height="1"/>
	<rect x="0" y="4" display="inline" fill="#30FF42" width="1" height="1"/>
	<rect x="1" y="2" display="inline" fill="#30FF42" width="1" height="1"/>
</g>
</svg>
